<svg width="512" height="512" viewBox="0 0 512 512" fill="none" xmlns="http://www.w3.org/2000/svg">
<g clip-path="url(#clip0_52_65)">
<mask id="mask0_52_65" style="mask-type:luminance" maskUnits="userSpaceOnUse" x="1" y="0" width="511" height="512">
<path d="M511.316 0H1V512H511.316V0Z" fill="white"/>
</mask>
<g mask="url(#mask0_52_65)">
<path d="M500.874 385.146L276.599 14.8887C272.222 7.6683 264.582 3.35449 256.158 3.35449C247.733 3.35449 240.094 7.6683 235.717 14.8877L11.4425 385.146C4.61307 396.42 1 409.362 1 422.559V422.694L81.6558 401.807L80.7578 389.193C80.7189 388.671 80.7349 388.147 80.7967 387.63L88.7703 323.618C89.2686 319.617 92.6635 316.609 96.6822 316.609H144.524C148.542 316.609 151.938 319.617 152.436 323.618L159.659 381.607L196.8 371.989L212.589 171.28L216.313 123.939C216.493 121.65 217.645 119.547 219.483 118.172L241.807 101.372C250.248 95.0118 262.068 95.0118 270.509 101.372L292.833 118.172C294.672 119.547 295.824 121.65 296.003 123.939L299.728 171.28L315.52 371.989L352.656 381.606L359.88 323.618C360.379 319.617 363.772 316.609 367.791 316.609H415.634C419.651 316.609 423.046 319.617 423.545 323.618L431.52 387.63C431.582 388.147 431.597 388.669 431.558 389.193L430.661 401.807L511.316 422.694V422.559C511.316 409.362 507.703 396.42 500.874 385.146Z" fill="#E4E4E4"/>
<path d="M493.212 482.17C493.192 482.167 493.173 482.165 493.153 482.162C493.173 482.165 493.194 482.169 493.212 482.17Z" fill="#E4E4E4"/>
<path d="M351.865 389.193C351.826 388.67 351.841 388.147 351.904 387.63L352.655 381.607L315.516 371.991L319.924 427.998C320.094 430.225 319.339 432.42 317.829 434.061C316.318 435.703 314.199 436.633 311.973 436.633H310.992L356.043 447.917L351.865 389.193Z" fill="#393838"/>
<path d="M426.125 465.469L491.444 481.828C492.01 481.975 492.582 482.081 493.153 482.162C493.173 482.166 493.192 482.169 493.212 482.171C493.795 482.252 494.376 482.297 494.957 482.314C494.987 482.314 495.016 482.316 495.045 482.318C495.162 482.319 495.28 482.328 495.398 482.328C495.87 482.328 496.34 482.302 496.808 482.26C496.811 482.26 496.815 482.258 496.815 482.258C497.347 482.211 497.876 482.128 498.4 482.025C498.531 481.998 498.661 481.971 498.79 481.943C499.23 481.846 499.664 481.73 500.094 481.594C500.193 481.564 500.294 481.539 500.395 481.505C500.896 481.338 501.387 481.142 501.872 480.924C502.007 480.861 502.14 480.79 502.275 480.726C502.639 480.548 502.996 480.358 503.349 480.153C503.494 480.069 503.637 479.984 503.779 479.896C504.24 479.607 504.695 479.3 505.131 478.96C509.064 475.905 511.314 471.295 511.314 466.31V422.696L430.657 401.809L426.125 465.469Z" fill="#393838"/>
<path d="M194.487 434.061C192.975 432.419 192.22 430.224 192.392 427.997L196.798 371.989L159.659 381.607L160.409 387.63C160.472 388.147 160.487 388.669 160.448 389.193L156.268 447.916L201.323 436.631H200.341C198.115 436.631 195.998 435.702 194.487 434.061Z" fill="#393838"/>
<path d="M1 422.694V466.308C1 471.293 3.25058 475.905 7.1826 478.958C10.0252 481.17 13.4429 482.326 16.9165 482.326C18.2322 482.326 19.5637 482.162 20.8723 481.826L86.1879 465.467L81.6568 401.807L1 422.694Z" fill="#393838"/>
<path d="M317.829 434.061C319.341 432.419 320.096 430.224 319.924 427.997L315.518 371.989L299.727 171.28L265.933 145.847C265.354 145.41 264.749 145.03 264.131 144.682V144.902C259.147 142.059 253.167 142.06 248.183 144.902V144.681C247.565 145.03 246.959 145.409 246.379 145.846L212.587 171.279L196.796 371.988L192.39 427.995C192.219 430.224 192.975 432.419 194.485 434.06C195.996 435.7 198.115 436.63 200.341 436.63H201.322H205.318H248.185V324.61C248.185 320.186 251.75 316.607 256.158 316.607C260.565 316.607 264.131 320.186 264.131 324.61V436.63H306.996H310.992H311.974C314.201 436.631 316.318 435.702 317.829 434.061Z" fill="#262626"/>
<path d="M248.185 144.682V97.9976C253.337 96.1842 258.979 96.1842 264.131 97.9976V144.682C264.749 145.032 265.355 145.411 265.935 145.847L299.728 171.28L296.003 123.939C295.824 121.65 294.672 119.548 292.833 118.172L270.509 101.372C262.068 95.012 250.248 95.012 241.807 101.372L219.483 118.172C217.645 119.548 216.493 121.65 216.313 123.939L212.589 171.28L246.383 145.847C246.96 145.412 247.567 145.032 248.185 144.682Z" fill="white"/>
<path d="M430.657 401.807L431.557 389.193C431.595 388.671 431.578 388.147 431.516 387.63C431.557 387.958 431.541 388.291 431.541 388.623H351.88C351.88 388.291 351.865 387.958 351.905 387.63C351.841 388.147 351.828 388.669 351.866 389.193L356.047 447.916L359.84 501.214C360.136 505.402 363.609 508.644 367.791 508.644H415.632C419.814 508.644 423.287 505.402 423.584 501.214L426.128 465.467L430.657 401.807Z" fill="#262626"/>
<path d="M256.158 316.609C251.75 316.609 248.185 320.188 248.185 324.612V436.631V500.645C248.185 505.067 251.75 508.646 256.158 508.646C260.565 508.646 264.131 505.067 264.131 500.645V436.631V324.612C264.131 320.188 260.565 316.609 256.158 316.609Z" fill="white"/>
<path d="M351.878 388.623H431.542C431.542 388.291 431.557 387.958 431.516 387.63L423.543 323.618C423.045 319.617 419.649 316.609 415.631 316.609H367.789C363.771 316.609 360.375 319.617 359.877 323.618L352.653 381.606L351.904 387.63C351.865 387.958 351.878 388.291 351.878 388.623Z" fill="white"/>
<path d="M160.409 387.63C160.449 387.958 160.434 388.291 160.434 388.623H80.7718C80.7718 388.291 80.7568 387.958 80.7967 387.63C80.7339 388.147 80.7189 388.669 80.7578 389.193L81.6558 401.807L86.1869 465.469L88.7315 501.214C89.0274 505.403 92.5 508.646 96.6822 508.646H144.524C148.706 508.646 152.179 505.403 152.475 501.214L156.269 447.916L160.449 389.193C160.487 388.669 160.472 388.147 160.409 387.63Z" fill="#262626"/>
<path d="M80.7716 388.623H160.434C160.434 388.291 160.449 387.958 160.409 387.63L159.658 381.608L152.435 323.618C151.937 319.617 148.542 316.609 144.523 316.609H96.6811C92.6633 316.609 89.2676 319.617 88.7692 323.618L80.7955 387.63C80.7576 387.958 80.7716 388.291 80.7716 388.623Z" fill="white"/>
<path d="M248.185 97.9969V144.682V144.903C253.168 142.059 259.147 142.059 264.131 144.903V144.683V97.9969C258.979 96.1846 253.337 96.1846 248.185 97.9969Z" fill="#393838"/>
</g>
</g>
<defs>
<clipPath id="clip0_52_65">
<rect width="512" height="512" fill="white"/>
</clipPath>
</defs>
</svg>
