<svg width="512" height="512" viewBox="0 0 512 512" fill="none" xmlns="http://www.w3.org/2000/svg">
<g clip-path="url(#clip0_145_65)">
<path d="M504.439 479.894C504.296 479.983 504.152 480.067 504.008 480.15C504.152 480.067 504.296 479.984 504.439 479.894Z" fill="black"/>
<path d="M501.523 385.145L276.508 14.8882C272.117 7.66782 264.453 3.354 256 3.354C247.547 3.354 239.883 7.66782 235.492 14.8872L10.477 385.145C3.625 396.42 0 409.361 0 422.558V422.694L80.922 401.807L80.021 389.193C79.982 388.67 79.998 388.146 80.06 387.63L88.06 323.617C88.56 319.617 91.966 316.608 95.998 316.608H143.998C148.029 316.608 151.436 319.617 151.936 323.617L159.183 381.606L196.445 371.989L212.287 171.28L216.024 123.939C216.204 121.649 217.36 119.547 219.204 118.172L241.602 101.371C250.071 95.0113 261.93 95.0113 270.399 101.371L292.797 118.172C294.641 119.547 295.797 121.649 295.977 123.939L299.714 171.28L315.557 371.989L352.817 381.605L360.064 323.617C360.564 319.617 363.97 316.608 368.002 316.608H416.002C420.033 316.608 423.44 319.617 423.94 323.617L431.94 387.63C432.003 388.146 432.018 388.669 431.979 389.193L431.078 401.806L512 422.694V422.558C512 409.361 508.375 396.42 501.523 385.145Z" fill="black"/>
<path d="M493.836 482.171C493.817 482.168 493.798 482.165 493.778 482.162C493.798 482.165 493.818 482.169 493.836 482.171Z" fill="black"/>
<path d="M352.023 389.193C351.984 388.67 352 388.146 352.062 387.63L352.815 381.607L315.555 371.99L319.976 427.997C320.148 430.225 319.39 432.42 317.874 434.061C316.358 435.703 314.233 436.632 311.999 436.632H311.015L356.216 447.916L352.023 389.193Z" fill="#393838"/>
<path d="M426.529 465.469L492.062 481.828C492.631 481.974 493.204 482.081 493.778 482.162C493.798 482.165 493.817 482.169 493.837 482.171C494.421 482.252 495.005 482.298 495.588 482.314C495.618 482.315 495.647 482.316 495.676 482.317C495.794 482.32 495.912 482.328 496.03 482.328C496.503 482.328 496.974 482.302 497.444 482.26C497.447 482.26 497.449 482.259 497.452 482.259C497.986 482.211 498.516 482.128 499.042 482.025C499.173 481.999 499.304 481.972 499.434 481.943C499.874 481.846 500.31 481.73 500.741 481.595C500.841 481.564 500.943 481.539 501.043 481.505C501.545 481.337 502.039 481.141 502.525 480.923C502.661 480.862 502.794 480.791 502.929 480.726C503.294 480.548 503.653 480.357 504.007 480.152C504.152 480.068 504.297 479.984 504.439 479.895C504.902 479.606 505.358 479.3 505.796 478.96C509.741 475.905 511.999 471.295 511.999 466.31V422.696L431.075 401.808L426.529 465.469Z" fill="#393838"/>
<path d="M194.125 434.06C192.609 432.419 191.852 430.224 192.023 427.996L196.444 371.989L159.182 381.607L159.935 387.63C159.998 388.146 160.013 388.669 159.974 389.193L155.78 447.916L200.984 436.632H200C197.766 436.631 195.641 435.702 194.125 434.06Z" fill="#393838"/>
<path d="M0 422.694V466.308C0 471.293 2.258 475.904 6.203 478.959C9.055 481.17 12.484 482.326 15.969 482.326C17.289 482.326 18.625 482.162 19.938 481.826L85.469 465.467L80.923 401.806L0 422.694Z" fill="#393838"/>
<path d="M317.875 434.06C319.391 432.419 320.148 430.224 319.977 427.996L315.556 371.989L299.713 171.28L265.808 145.846C265.227 145.41 264.62 145.03 263.999 144.682V144.902C258.999 142.058 252.999 142.059 247.999 144.902V144.681C247.379 145.03 246.771 145.409 246.19 145.845L212.285 171.279L196.443 371.988L192.022 427.995C191.85 430.223 192.608 432.418 194.124 434.059C195.64 435.701 197.765 436.63 199.999 436.63H200.983H204.993H248V324.609C248 320.186 251.578 316.607 256 316.607C260.422 316.607 264 320.186 264 324.609V436.63H307.005H311.015H312C314.234 436.631 316.359 435.702 317.875 434.06Z" fill="#262626"/>
<path d="M248 144.682V97.9971C253.169 96.1837 258.831 96.1837 264 97.9971V144.682C264.62 145.031 265.228 145.41 265.809 145.846L299.714 171.28L295.977 123.939C295.797 121.65 294.641 119.547 292.797 118.172L270.399 101.372C261.93 95.0115 250.071 95.0115 241.602 101.372L219.204 118.172C217.36 119.547 216.204 121.65 216.024 123.939L212.287 171.28L246.192 145.846C246.772 145.411 247.38 145.031 248 144.682Z" fill="#7C7A7A"/>
<path d="M431.076 401.807L431.977 389.193C432.016 388.67 432 388.146 431.938 387.63C431.978 387.958 431.963 388.291 431.963 388.623H352.038C352.038 388.291 352.023 387.958 352.063 387.63C352 388.146 351.985 388.669 352.024 389.193L356.218 447.915L360.024 501.213C360.321 505.402 363.805 508.645 368.001 508.645H416.001C420.196 508.645 423.681 505.402 423.978 501.213L426.531 465.468L431.076 401.807Z" fill="#262626"/>
<path d="M256 316.609C251.578 316.609 248 320.188 248 324.611V436.632V500.644C248 505.067 251.578 508.646 256 508.646C260.422 508.646 264 505.067 264 500.644V436.632V324.611C264 320.188 260.422 316.609 256 316.609Z" fill="#7C7A7A"/>
<path d="M352.037 388.623H431.962C431.962 388.291 431.977 387.958 431.937 387.63L423.937 323.618C423.437 319.617 420.031 316.608 415.999 316.608H367.999C363.968 316.608 360.561 319.617 360.061 323.618L352.814 381.606L352.061 387.629C352.023 387.958 352.037 388.291 352.037 388.623Z" fill="#7C7A7A"/>
<path d="M159.935 387.63C159.975 387.958 159.96 388.291 159.96 388.623H80.035C80.035 388.291 80.02 387.958 80.06 387.63C79.997 388.146 79.982 388.669 80.021 389.193L80.922 401.808L85.468 465.469L88.021 501.214C88.318 505.403 91.802 508.646 95.998 508.646H143.998C148.193 508.646 151.678 505.403 151.975 501.214L155.781 447.916L159.975 389.193C160.013 388.669 159.998 388.146 159.935 387.63Z" fill="#262626"/>
<path d="M80.035 388.623H159.96C159.96 388.291 159.975 387.958 159.935 387.63L159.182 381.607L151.935 323.618C151.435 319.617 148.029 316.608 143.997 316.608H95.997C91.966 316.608 88.559 319.617 88.059 323.618L80.059 387.63C80.021 387.958 80.035 388.291 80.035 388.623Z" fill="#7C7A7A"/>
<path d="M248 97.997V144.682V144.903C253 142.059 259 142.059 264 144.903V144.683V97.997C258.831 96.1846 253.169 96.1846 248 97.997Z" fill="#393838"/>
</g>
<defs>
<clipPath id="clip0_145_65">
<rect width="512" height="512" fill="white"/>
</clipPath>
</defs>
</svg>
